name C:\Users\antoi\Documents\MyRepositories\upper-imu-dc\Results\main_tracking\Case_85\kinematics.mot
datacolumns 43
datarows 9
range 5.26000000 5.42000000
endheader 
time	clav_prot	clav_elev	scapula_abduction	scapula_elevation	scapula_upward_rot	scapula_winging	plane_elv	shoulder_elv	axial_rot	TrapeziusScapula_M/activation	TrapeziusScapula_S/activation	TrapeziusScapula_I/activation	TrapeziusClavicle_S/activation	SerratusAnterior_I/activation	SerratusAnterior_M/activation	SerratusAnterior_S/activation	Rhomboideus_S/activation	Rhomboideus_I/activation	LevatorScapulae/activation	Coracobrachialis/activation	DeltoideusClavicle_A/activation	DeltoideusScapula_P/activation	DeltoideusScapula_M/activation	LatissimusDorsi_S/activation	LatissimusDorsi_M/activation	LatissimusDorsi_I/activation	PectoralisMajorClavicle_S/activation	PectoralisMajorThorax_I/activation	PectoralisMajorThorax_M/activation	TeresMajor/activation	Infraspinatus_I/activation	Infraspinatus_S/activation	PectoralisMinor/activation	TeresMinor/activation	Subscapularis_S/activation	Subscapularis_M/activation	Subscapularis_I/activation	Supraspinatus_P/activation	Supraspinatus_A/activation	TRIlong/activation	BIC_long/activation	BIC_brevis/activation	
          5.26000000	        -46.39718083	          4.25835588	        -29.17488820	         -5.71072603	         47.26256487	        -12.39562418	         28.41697634	         78.19885448	         -2.71541612	          0.01000001	          0.07556410	          0.01000000	          0.02143498	          0.05908828	          0.08270992	          0.01000000	          0.01000000	          0.01000000	          0.01000000	          0.06222225	          0.11548456	          0.01000000	          0.09516469	          0.01000000	          0.01000000	          0.01000000	          0.03200843	          0.01000000	          0.01189813	          0.01000000	          0.02995905	          0.01000559	          0.01000000	          0.01000000	          0.01000003	          0.01000000	          0.01000000	          0.03602182	          0.06366725	          0.01000000	          0.05050829	          0.06088756	
          5.28000000	        -46.65712850	          4.35895990	        -29.33047383	         -5.68740064	         47.59201721	        -12.64288246	         29.00723276	         78.41247739	         -3.20657448	          0.01000001	          0.07511698	          0.01000000	          0.02121587	          0.05975484	          0.08271824	          0.01000000	          0.01000000	          0.01000000	          0.01000000	          0.06227609	          0.11532777	          0.01000000	          0.09520367	          0.01000000	          0.01000000	          0.01000000	          0.03187518	          0.01000000	          0.01178152	          0.01000000	          0.03103006	          0.01000248	          0.01000000	          0.01000000	          0.01000004	          0.01000000	          0.01000000	          0.03572525	          0.06281093	          0.01000000	          0.04951892	          0.06126371	
          5.30000000	        -46.90752493	          4.45038780	        -29.47237170	         -5.66862350	         47.91675421	        -12.88044070	         29.57414941	         78.62818797	         -3.70875063	          0.01000001	          0.07479189	          0.01000000	          0.02099487	          0.06062571	          0.08278033	          0.01000000	          0.01000000	          0.01000000	          0.01000000	          0.06237003	          0.11533142	          0.01000000	          0.09546474	          0.01000000	          0.01000000	          0.01000000	          0.03174574	          0.01000000	          0.01160706	          0.01000000	          0.03206780	          0.01000063	          0.01000000	          0.01000000	          0.01000003	          0.01000000	          0.01000000	          0.03547753	          0.06205939	          0.01000000	          0.04859952	          0.06168031	
          5.32000000	        -47.14929304	          4.53226235	        -29.60093366	         -5.65483773	         48.23807189	        -13.10873413	         30.11849801	         78.84727758	         -4.21514422	          0.01000001	          0.07455476	          0.01000000	          0.02079689	          0.06159958	          0.08296935	          0.01000000	          0.01000000	          0.01000000	          0.01000000	          0.06254387	          0.11549870	          0.01000000	          0.09588112	          0.01000000	          0.01000000	          0.01000000	          0.03166711	          0.01000000	          0.01145092	          0.01000000	          0.03303328	          0.01000007	          0.01000000	          0.01000000	          0.01000002	          0.01000000	          0.01000000	          0.03528458	          0.06142931	          0.01000000	          0.04775778	          0.06217713	
          5.34000000	        -47.38308521	          4.60500653	        -29.71636551	         -5.64590907	         48.55725474	        -13.32835970	         30.64112041	         79.07142554	         -4.71781848	          0.01000001	          0.07435255	          0.01000000	          0.02063962	          0.06254503	          0.08331462	          0.01000000	          0.01000000	          0.01000000	          0.01000000	          0.06278349	          0.11576047	          0.01000000	          0.09634591	          0.01000000	          0.01000000	          0.01000000	          0.03165325	          0.01000000	          0.01136326	          0.01000000	          0.03388628	          0.01000012	          0.01000000	          0.01000000	          0.01000002	          0.01000000	          0.01000000	          0.03512421	          0.06088719	          0.01000000	          0.04697079	          0.06273788	
          5.36000000	        -47.60925850	          4.66978997	        -29.81882341	         -5.64114951	         48.87538341	        -13.54001055	         31.14308610	         79.30237080	         -5.20778746	          0.01000001	          0.07411913	          0.01000000	          0.02053421	          0.06331735	          0.08381350	          0.01000000	          0.01000000	          0.01000000	          0.01000000	          0.06304263	          0.11600432	          0.01000000	          0.09673277	          0.01000000	          0.01000000	          0.01000000	          0.03169933	          0.01000000	          0.01137610	          0.01000000	          0.03459622	          0.01000009	          0.01000000	          0.01000000	          0.01000001	          0.01000000	          0.01000000	          0.03496548	          0.06037677	          0.01000000	          0.04619610	          0.06331211	
          5.38000000	        -47.82787652	          4.72828258	        -29.90847428	         -5.63947721	         49.19316027	        -13.74435469	         31.62567282	         79.54156365	         -5.67569238	          0.01000001	          0.07378275	          0.01000000	          0.02048648	          0.06378311	          0.08443874	          0.01000000	          0.01000000	          0.01000000	          0.01000000	          0.06325735	          0.11611179	          0.01000000	          0.09691275	          0.01000000	          0.01000000	          0.01000000	          0.03179298	          0.01000000	          0.01151212	          0.01000000	          0.03514647	          0.01000007	          0.01000000	          0.01000000	          0.01000001	          0.01000000	          0.01000000	          0.03477344	          0.05983534	          0.01000000	          0.04539089	          0.06383189	
          5.40000000	        -48.03875421	          4.78224035	        -29.98547280	         -5.63970367	         49.51085943	        -13.94188857	         32.09021247	         79.78980451	         -6.11289093	          0.01000000	          0.07328322	          0.01000000	          0.02049509	          0.06386287	          0.08515107	          0.01000000	          0.01000000	          0.01000000	          0.01000000	          0.06338030	          0.11599176	          0.01000000	          0.09680334	          0.01000000	          0.01000000	          0.01000000	          0.03191303	          0.01000000	          0.01177893	          0.01000000	          0.03554001	          0.01000005	          0.01000000	          0.01000000	          0.01000001	          0.01000000	          0.01000000	          0.03451903	          0.05921047	          0.01000000	          0.04452859	          0.06424515	
          5.42000000	        -48.24154041	          4.83304985	        -30.04990098	         -5.64085784	         49.82838176	        -14.13280980	         32.53793424	         80.04701058	         -6.51259259	          0.01000000	          0.07259934	          0.01000000	          0.02055739	          0.06355742	          0.08592739	          0.01000000	          0.01000000	          0.01000000	          0.01000000	          0.06339464	          0.11565959	          0.01000000	          0.09639618	          0.01000000	          0.01000000	          0.01000000	          0.03206107	          0.01000000	          0.01218281	          0.01000000	          0.03579765	          0.01000004	          0.01000000	          0.01000000	          0.01000001	          0.01000000	          0.01000000	          0.03420231	          0.05849955	          0.01000000	          0.04361454	          0.06453649	
